{
    "patcher": {
        "fileversion": 1,
        "appversion": {
            "major": 9,
            "minor": 1,
            "revision": 1,
            "architecture": "x64",
            "modernui": 1
        },
        "classnamespace": "box",
        "rect": [ 134.0, 193.0, 443.0, 486.0 ],
        "boxes": [
            {
                "box": {
                    "comment": "",
                    "id": "obj-8",
                    "index": 2,
                    "maxclass": "outlet",
                    "numinlets": 1,
                    "numoutlets": 0,
                    "patching_rect": [ 225.1224479675293, 408.0, 30.0, 30.0 ]
                }
            },
            {
                "box": {
                    "id": "obj-13",
                    "maxclass": "newobj",
                    "numinlets": 1,
                    "numoutlets": 2,
                    "outlettype": [ "int", "int" ],
                    "patching_rect": [ 137.7551007270813, 288.77550745010376, 29.5, 22.0 ],
                    "text": "t 1 i"
                }
            },
            {
                "box": {
                    "id": "obj-10",
                    "maxclass": "message",
                    "numinlets": 2,
                    "numoutlets": 1,
                    "outlettype": [ "" ],
                    "patching_rect": [ 47.0, 280.0, 29.5, 22.0 ],
                    "text": "0"
                }
            },
            {
                "box": {
                    "id": "obj-4",
                    "maxclass": "newobj",
                    "numinlets": 1,
                    "numoutlets": 1,
                    "outlettype": [ "" ],
                    "patching_rect": [ 206.0, 280.0, 165.0, 22.0 ],
                    "text": "sprintf cannot find column %s"
                }
            },
            {
                "box": {
                    "id": "obj-3",
                    "maxclass": "newobj",
                    "numinlets": 2,
                    "numoutlets": 1,
                    "outlettype": [ "" ],
                    "patching_rect": [ 47.0, 310.0, 52.0, 22.0 ],
                    "text": "gate 1 1"
                }
            },
            {
                "box": {
                    "comment": "",
                    "id": "obj-12",
                    "index": 1,
                    "maxclass": "inlet",
                    "numinlets": 0,
                    "numoutlets": 1,
                    "outlettype": [ "" ],
                    "patching_rect": [ 69.0, 70.40816259384155, 30.0, 30.0 ]
                }
            },
            {
                "box": {
                    "id": "obj-11",
                    "maxclass": "newobj",
                    "numinlets": 2,
                    "numoutlets": 2,
                    "outlettype": [ "", "" ],
                    "patching_rect": [ 47.0, 372.0, 48.0, 22.0 ],
                    "text": "array.at"
                }
            },
            {
                "box": {
                    "id": "obj-9",
                    "maxclass": "message",
                    "numinlets": 2,
                    "numoutlets": 1,
                    "outlettype": [ "" ],
                    "patching_rect": [ 163.0, 163.0, 89.0, 22.0 ],
                    "text": "name $1, bang"
                }
            },
            {
                "box": {
                    "id": "obj-7",
                    "maxclass": "newobj",
                    "numinlets": 2,
                    "numoutlets": 2,
                    "outlettype": [ "", "" ],
                    "patching_rect": [ 120.0, 127.0, 51.0, 22.0 ],
                    "text": "zl.mth 1"
                }
            },
            {
                "box": {
                    "id": "obj-6",
                    "maxclass": "newobj",
                    "numinlets": 2,
                    "numoutlets": 2,
                    "outlettype": [ "", "" ],
                    "patching_rect": [ 174.0, 127.0, 51.0, 22.0 ],
                    "text": "zl.mth 0"
                }
            },
            {
                "box": {
                    "id": "obj-5",
                    "maxclass": "message",
                    "numinlets": 2,
                    "numoutlets": 1,
                    "outlettype": [ "" ],
                    "patching_rect": [ 106.1224479675293, 337.75509881973267, 149.0, 22.0 ],
                    "text": "cannot find column phrase"
                }
            },
            {
                "box": {
                    "id": "obj-2",
                    "maxclass": "newobj",
                    "numinlets": 1,
                    "numoutlets": 0,
                    "patching_rect": [ 106.0, 372.0, 82.0, 22.0 ],
                    "text": "print @level 1"
                }
            },
            {
                "box": {
                    "id": "obj-1",
                    "maxclass": "newobj",
                    "numinlets": 1,
                    "numoutlets": 2,
                    "outlettype": [ "", "" ],
                    "patching_rect": [ 174.0, 87.0, 72.0, 22.0 ],
                    "text": "patcherargs"
                }
            },
            {
                "box": {
                    "id": "obj-30",
                    "maxclass": "newobj",
                    "numinlets": 2,
                    "numoutlets": 2,
                    "outlettype": [ "", "" ],
                    "patching_rect": [ 106.0, 258.0, 50.0, 22.0 ],
                    "text": "route -1"
                }
            },
            {
                "box": {
                    "id": "obj-25",
                    "maxclass": "message",
                    "numinlets": 2,
                    "numoutlets": 1,
                    "outlettype": [ "" ],
                    "patching_rect": [ 105.0, 163.0, 102.0, 22.0 ],
                    "text": "phrase"
                }
            },
            {
                "box": {
                    "id": "obj-23",
                    "maxclass": "newobj",
                    "numinlets": 0,
                    "numoutlets": 1,
                    "outlettype": [ "" ],
                    "patching_rect": [ 105.0, 87.0, 43.0, 22.0 ],
                    "text": "r ---init"
                }
            },
            {
                "box": {
                    "id": "obj-21",
                    "maxclass": "newobj",
                    "numinlets": 2,
                    "numoutlets": 1,
                    "outlettype": [ "" ],
                    "patching_rect": [ 105.0, 227.0, 77.0, 22.0 ],
                    "text": "array.indexof"
                }
            },
            {
                "box": {
                    "id": "obj-17",
                    "linecount": 2,
                    "maxclass": "newobj",
                    "numinlets": 2,
                    "numoutlets": 3,
                    "outlettype": [ "", "", "" ],
                    "patching_rect": [ 163.0, 198.0, 179.0, 22.0 ],
                    "saved_object_attributes": {
                        "parameter_enable": 0,
                        "parameter_mappable": 0
                    },
                    "text": "array @name #1"
                }
            },
            {
                "box": {
                    "comment": "",
                    "id": "obj-32",
                    "index": 1,
                    "maxclass": "outlet",
                    "numinlets": 1,
                    "numoutlets": 0,
                    "patching_rect": [ 47.0, 408.0, 30.0, 30.0 ]
                }
            }
        ],
        "lines": [
            {
                "patchline": {
                    "destination": [ "obj-6", 0 ],
                    "order": 0,
                    "source": [ "obj-1", 0 ]
                }
            },
            {
                "patchline": {
                    "destination": [ "obj-7", 0 ],
                    "order": 1,
                    "source": [ "obj-1", 0 ]
                }
            },
            {
                "patchline": {
                    "destination": [ "obj-3", 0 ],
                    "source": [ "obj-10", 0 ]
                }
            },
            {
                "patchline": {
                    "destination": [ "obj-32", 0 ],
                    "source": [ "obj-11", 0 ]
                }
            },
            {
                "patchline": {
                    "destination": [ "obj-3", 1 ],
                    "source": [ "obj-12", 0 ]
                }
            },
            {
                "patchline": {
                    "destination": [ "obj-11", 1 ],
                    "order": 1,
                    "source": [ "obj-13", 1 ]
                }
            },
            {
                "patchline": {
                    "destination": [ "obj-3", 0 ],
                    "source": [ "obj-13", 0 ]
                }
            },
            {
                "patchline": {
                    "destination": [ "obj-8", 0 ],
                    "order": 0,
                    "source": [ "obj-13", 1 ]
                }
            },
            {
                "patchline": {
                    "destination": [ "obj-21", 1 ],
                    "source": [ "obj-17", 0 ]
                }
            },
            {
                "patchline": {
                    "destination": [ "obj-30", 0 ],
                    "source": [ "obj-21", 0 ]
                }
            },
            {
                "patchline": {
                    "destination": [ "obj-17", 0 ],
                    "order": 0,
                    "source": [ "obj-23", 0 ]
                }
            },
            {
                "patchline": {
                    "destination": [ "obj-25", 0 ],
                    "order": 1,
                    "source": [ "obj-23", 0 ]
                }
            },
            {
                "patchline": {
                    "destination": [ "obj-21", 0 ],
                    "source": [ "obj-25", 0 ]
                }
            },
            {
                "patchline": {
                    "destination": [ "obj-11", 0 ],
                    "source": [ "obj-3", 0 ]
                }
            },
            {
                "patchline": {
                    "destination": [ "obj-10", 0 ],
                    "order": 1,
                    "source": [ "obj-30", 0 ]
                }
            },
            {
                "patchline": {
                    "destination": [ "obj-13", 0 ],
                    "source": [ "obj-30", 1 ]
                }
            },
            {
                "patchline": {
                    "destination": [ "obj-5", 0 ],
                    "order": 0,
                    "source": [ "obj-30", 0 ]
                }
            },
            {
                "patchline": {
                    "destination": [ "obj-5", 1 ],
                    "source": [ "obj-4", 0 ]
                }
            },
            {
                "patchline": {
                    "destination": [ "obj-2", 0 ],
                    "source": [ "obj-5", 0 ]
                }
            },
            {
                "patchline": {
                    "destination": [ "obj-9", 0 ],
                    "source": [ "obj-6", 0 ]
                }
            },
            {
                "patchline": {
                    "destination": [ "obj-25", 1 ],
                    "order": 1,
                    "source": [ "obj-7", 0 ]
                }
            },
            {
                "patchline": {
                    "destination": [ "obj-25", 0 ],
                    "order": 2,
                    "source": [ "obj-7", 0 ]
                }
            },
            {
                "patchline": {
                    "destination": [ "obj-4", 0 ],
                    "order": 0,
                    "source": [ "obj-7", 0 ]
                }
            },
            {
                "patchline": {
                    "destination": [ "obj-17", 0 ],
                    "source": [ "obj-9", 0 ]
                }
            }
        ]
    }
}